# xmcd CD database file
#
# Track frame offsets:
#	150
#	21704
#	40207
#	61472
#	87391
#	152967
#	174674
#
# Disc length: 2783 seconds
#
# Revision: 0
# Processed by: cddbd v1.5.2PL0 Copyright (c) Steve Scherf et al.
# Submitted via: CDex 1.70beta2
#
DISCID=5f0add07
DTITLE=Albert Storo and The Soul Hustlers - Gettin Down and Nasty
DYEAR=2007
DGENRE=Blues
TTITLE0=That's Alright
TTITLE1=Hipshakin' Woman
TTITLE2=All My Life
TTITLE3=Sugar Sweet
TTITLE4=Chicken Heads
TTITLE5=Lovin' You
TTITLE6=My Favorite Things
EXTD=YEAR: 2007
EXTT0=
EXTT1=
EXTT2=
EXTT3=
EXTT4=
EXTT5=
EXTT6=
PLAYORDER=
